<svg xmlns="http://www.w3.org/2000/svg" viewBox="0 0 1440 320" preserveAspectRatio="none">
  <defs>
    <linearGradient id="g" x1="0" y1="0" x2="1" y2="0">
      <stop offset="0" stop-color="#004AAD"/>
      <stop offset="1" stop-color="#0066CC"/>
    </linearGradient>
  </defs>
  <path fill="url(#g)" d="M0,224L60,197.3C120,171,240,117,360,112C480,107,600,149,720,160C840,171,960,149,1080,160C1200,171,1320,213,1380,234.7L1440,256L1440,320L1380,320C1320,320,1200,320,1080,320C960,320,840,320,720,320C600,320,480,320,360,320C240,320,120,320,60,320L0,320Z"/>
</svg>

