<svg xmlns="http://www.w3.org/2000/svg" viewBox="0 0 360 60" role="img" aria-label="Hizmet ikonları">
  <g fill="none" stroke="#004AAD" stroke-width="2" stroke-linecap="round" stroke-linejoin="round">
    <!-- BES -->
    <rect x="10" y="14" width="40" height="30" rx="6"/>
    <path d="M15 29h30"/>
    <circle cx="25" cy="22" r="2" fill="#FF7B00"/>
    <!-- Hayat -->
    <path d="M80 34c8 8 22 2 22-10c0-8-6-12-11-12s-11 4-11 12c0 4 2 7 5 10l6 6l6-6"/>
    <!-- Trafik -->
    <rect x="130" y="26" width="40" height="18" rx="4"/>
    <circle cx="140" cy="47" r="4"/>
    <circle cx="160" cy="47" r="4"/>
    <!-- Kasko -->
    <path d="M200 42l-12-8v-10l12-6l12 6v10z"/>
    <!-- DASK -->
    <path d="M250 44V26l14-10l14 10v18"/>
    <path d="M254 44v-8h8v8M270 44v-8h8v8"/>
    <!-- Sağlık -->
    <rect x="310" y="20" width="40" height="28" rx="8"/>
    <path d="M319 34h10M324 29v10"/>
  </g>
</svg>

